<svg xmlns="http://www.w3.org/2000/svg" version="1.1" xmlns:xlink="http://www.w3.org/1999/xlink" xmlns:svgjs="http://svgjs.dev/svgjs" width="1000" height="1125" viewBox="0 0 1000 1125"><g transform="matrix(1,0,0,1,1.7053025658242404e-13,0)"><svg viewBox="0 0 320 360" data-background-color="#010101" preserveAspectRatio="xMidYMid meet" height="1125" width="1000" xmlns="http://www.w3.org/2000/svg" xmlns:xlink="http://www.w3.org/1999/xlink"><g id="tight-bounds" transform="matrix(1,0,0,1,0,0)"><svg viewBox="0 0 320 360" height="360" width="320"><g><svg></svg></g><g><svg viewBox="0 0 320 360" height="360" width="320"><g><path xmlns="http://www.w3.org/2000/svg" d="M20.961 227.22l3.726 4.658-1.863-6.056c-0.466-2.795-3.726 0.466-1.863 1.398M25.153 224.425c1.397 2.329 2.795 4.658 2.795 6.987 0 3.261 2.795 4.658 5.123 5.589-3.261-3.726-5.124-13.974-7.918-12.576M204.017 26.929c7.918 0 15.371-0.932 23.756 0.931 20.495 5.124 37.729 15.371 49.374 29.811l32.606 52.169c1.397 13.042 4.192 27.482 3.726 43.319 3.261 0 2.795-4.658 6.521-5.59-3.726 9.316-5.59 20.961-6.521 34.469-2.329-7.453 0-18.632 0.466-24.687-3.261 5.124-5.124 1.397-5.124-0.932 0.466-3.726-1.397-3.261-2.795-4.658-5.124-4.658-8.384-9.782-12.11-17.7 2.329-6.055 2.795-14.905-4.658-19.563-2.329-1.397-5.124-3.726-6.521-7.453-1.863-5.124-5.124-11.179-4.193-19.097 0.466-2.329-6.987 5.124-11.179 1.863-18.166-12.576-36.332-27.016-58.224-39.127-11.645 0-20.029-4.192-24.221-9.316-3.726-4.658-0.932-10.713 4.658-11.179 3.261 0 6.987-0.932 9.782 0.932 0.466-1.863 2.329-4.192 4.657-4.192M157.904 16.215l0.932 0.466c4.658 0.932 6.987 7.453 12.11 5.124 0 3.261 0.466 6.521-0.466 8.85-1.397 3.726-5.59 3.726-8.85 3.726-31.208-1.863-49.374 11.179-68.471 22.358-5.124 3.261-10.713 5.59-14.906 9.782-20.029 18.632-41.921 35.866-47.045 70.335l-4.192 38.195c-0.466 4.192-5.124 8.384-4.192 13.508l3.26 22.824c-3.261-3.261-5.124 0.932-4.192 2.795 0.466 1.397 2.329 6.055 5.124 1.863 3.726 6.987 7.453 20.495 12.576 26.55 15.837 18.632 36.332 35.4 53.101 52.169 4.192-0.932 7.453-0.932 8.384-3.727 1.397 2.795-1.397 5.59-3.726 6.056 7.453 4.658 15.837 8.85 27.016 9.781 14.44 0.932 27.948 3.261 40.524 6.522 6.521-1.863 13.042-2.795 20.029-3.261 2.329 0 3.726-3.726 6.521-4.658l0.466-4.658c2.795 4.192 2.329-1.397 0.466-4.192 3.261 2.795 4.192 5.124 5.589 6.987 0-1.397 3.726-6.521 3.727-0.466l0.931-6.055c1.397-0.932 1.863 5.124 3.261 0.931 1.397-4.192 4.192-0.932 6.987-2.329-0.932 1.863-0.466 5.59 2.794 3.261l3.727-3.261c2.329 5.59 6.055 3.261 7.918 2.329 20.495-13.042 40.99-28.413 60.553-43.784l-0.466 6.055 2.329-7.453c2.329 2.329 4.192 0.466 5.124-0.931 2.795-4.658 6.521-9.316 12.577-13.508-7.453 20.029-16.303 35.866-27.482 48.908l-4.658 5.59c0 3.261-0.932 7.453-4.658 7.918-1.863 0.466-5.59-0.932-8.384 1.863-1.397 1.863 3.261 5.59-0.466 2.795-3.261-2.329-6.521 0-10.248 0.932-2.795 0.932 1.863 3.726 2.795 5.589 0.932 1.863 1.863 3.726 1.398 6.056l-5.124-5.59c-6.055 3.261-9.782 9.316-14.906 13.974-2.329 1.863-1.397 5.124-1.397 7.918-3.261 0-6.987-0.932-8.85 0.932-1.397 1.863-0.932 4.658-0.932 7.453-4.658-0.466-5.124-7.453-9.315-6.056-4.192 0.932-8.85 1.397-12.577 3.727 2.795 5.59-4.658 2.329-3.726 3.26-6.987-4.192-13.042-7.453-20.495-4.658-15.837-5.124-35.4-2.795-49.84-0.931 0-2.329 0.466-4.658-0.466-5.124-0.932 2.329-3.726 1.397-3.26 1.397-8.85-6.055-17.7-9.782-27.016-14.905-8.384 0.932-16.303-3.261-18.632-5.59-6.521-6.055-13.974-2.795-20.029-4.192-13.042-3.261-17.7-16.769-19.098-26.084-0.932-4.658-4.658-6.521-6.055-6.056-6.055-19.563-15.371-37.263-22.824-55.429-1.863-4.658-1.397-9.316-1.397-14.44 2.329 0.932 4.658 0.466 4.192-2.794-2.329-15.371-7.918-27.016-13.974-38.195 3.261-15.837 3.726-34.469 11.179-48.443 6.521-12.576 18.632-19.098 27.016-29.811 2.795-3.726 2.795-8.85 5.59-12.11 9.316-9.316 18.632-19.098 28.879-27.482 4.658-3.726 10.247 0 17.234-1.397 2.329-8.384 11.645-15.837 20.495-13.508 3.726 0.932 11.179-8.85 13.508-9.782 3.726-1.397 1.863 3.726 1.863 6.987 8.85-6.987 20.961-10.713 32.14-14.906" fill="#ee3e38" fill-rule="nonzero" stroke="none" stroke-width="1" stroke-linecap="butt" stroke-linejoin="miter" stroke-miterlimit="10" stroke-dasharray="" stroke-dashoffset="0" font-family="none" font-weight="none" font-size="none" text-anchor="none" style="mix-blend-mode: normal" data-fill-palette-color="tertiary"></path></g><g transform="matrix(1,0,0,1,74.39407149084569,90)"><svg viewBox="0 0 171.21185701830862 180" height="180" width="171.21185701830862"><g><svg viewBox="0 0 171.21185701830862 180" height="180" width="171.21185701830862"><g><svg viewBox="0 0 171.21185701830862 180" height="180" width="171.21185701830862"><g><svg viewBox="0 0 171.21185701830862 180" height="180" width="171.21185701830862"><g><svg viewBox="0 0 171.21185701830862 180" height="180" width="171.21185701830862"><g><svg viewBox="0 0 171.21185701830862 180" height="180" width="171.21185701830862"><g transform="matrix(1,0,0,1,0,0)"><svg width="171.21185701830862" viewBox="4.980000019073486 -45.79999923706055 53.27000045776367 56.0099983215332" height="180" data-palette-color="#ee3e38"><path d="M58.25-8.3L58.25-8.3Q58.25-7.67 57.91-7.15 57.57-6.64 57.71-5.96L57.71-5.96Q57.52-5.62 57.2-5.42 56.88-5.22 56.98-4.69L56.98-4.69Q55.96-4.15 55.1-3.34 54.25-2.54 53.27-1.81L53.27-1.81Q52.69-1.37 52.27-1.2 51.86-1.03 51.27-0.68L51.27-0.68 50.05 0.1Q49.22 0.54 48.36 0.98 47.51 1.42 46.83 2.1L46.83 2.1Q45.8 2.15 44.73 2.66 43.65 3.17 42.68 3.56L42.68 3.56Q42.29 3.71 41.89 3.78 41.5 3.86 41.11 4.05L41.11 4.05 40.33 4.39Q39.65 4.74 38.72 5.1 37.79 5.47 37.06 5.47L37.06 5.47Q36.62 5.66 36.33 6.15L36.33 6.15Q34.72 6.69 33.01 6.98 31.3 7.28 29.69 7.91L29.69 7.91Q29.15 8.15 28.59 8.57 28.03 8.98 27.39 8.94L27.39 8.94Q27.25 9.18 27.2 9.52 27.15 9.86 27.05 10.21L27.05 10.21 26.9 10.21Q26.71 10.21 26.73 10.01 26.76 9.81 26.56 9.81L26.56 9.81Q26.42 9.81 26.37 9.86L26.37 9.86Q25.73 10.01 25.17 10.11 24.61 10.21 23.93 10.21L23.93 10.21Q23.54 10.21 22.68 10.11 21.83 10.01 21.44 9.86L21.44 9.86Q21.14 9.72 20.95 9.33 20.75 8.94 20.58 8.5 20.41 8.06 20.29 7.59 20.17 7.13 20.07 6.84L20.07 6.84Q20.21 6.3 20.56 5.96 20.9 5.62 21.09 5.08L21.09 5.08Q21.53 5.03 21.97 4.93 22.41 4.83 22.85 4.88L22.85 4.88Q24.37 4.44 25.9 4.03 27.44 3.61 28.96 3.17 30.47 2.73 31.93 2.2 33.4 1.66 34.77 0.88L34.77 0.88 35.79 0.88Q36.67 0.39 37.74 0.05 38.82-0.29 39.5-1.07L39.5-1.07Q41.11-1.42 42.87-2 44.63-2.59 45.8-3.86L45.8-3.86Q46.53-3.96 47.07-4.22 47.61-4.49 48.1-4.79L48.1-4.79 49.07-5.42Q49.56-5.76 50.2-5.96L50.2-5.96Q50.59-6.35 50.93-6.79 51.27-7.23 51.76-7.52L51.76-7.52Q51.61-8.3 50.98-8.69 50.34-9.08 49.85-9.62L49.85-9.62 48.78-9.62Q47.51-10.4 46.07-10.82 44.63-11.23 43.21-11.72L43.21-11.72Q43.12-11.77 42.97-11.77L42.97-11.77Q42.63-11.77 42.55-11.52 42.48-11.28 42.14-11.33L42.14-11.33Q41.7-11.62 41.21-11.69 40.72-11.77 40.19-11.77L40.19-11.77Q39.5-11.77 38.84-11.69 38.18-11.62 37.5-11.62L37.5-11.62Q37.16-11.62 36.82-11.67 36.47-11.72 36.13-11.91L36.13-11.91 35.5-11.91Q34.47-11.91 33.47-11.84 32.47-11.77 31.49-11.77L31.49-11.77Q30.96-11.77 30.47-11.79 29.98-11.82 29.49-11.91L29.49-11.91Q28.47-11.43 27.29-11.23 26.12-11.04 24.88-10.94 23.63-10.84 22.41-10.77 21.19-10.69 20.07-10.5L20.07-10.5Q19.78-10.55 19.51-10.57 19.24-10.6 18.99-10.6L18.99-10.6Q18.75-10.6 18.48-10.57 18.21-10.55 17.97-10.5L17.97-10.5Q17.33-11.18 16.43-11.5 15.53-11.82 14.65-11.91L14.65-11.91Q13.96-12.74 13.65-13.6 13.33-14.45 13.23-15.53L13.23-15.53 13.43-15.53Q13.77-15.53 13.75-15.87 13.72-16.21 13.96-16.46L13.96-16.46Q14.21-16.75 14.62-16.87 15.04-16.99 15.43-17.14 15.82-17.29 16.19-17.5 16.55-17.72 16.75-18.21L16.75-18.21 17.38-18.21Q17.58-18.21 17.8-18.19 18.02-18.16 18.16-18.02L18.16-18.02Q18.36-18.21 18.65-18.36 18.95-18.51 19.21-18.65 19.48-18.8 19.68-18.99 19.87-19.19 19.92-19.58L19.92-19.58Q19.97-19.43 20.17-19.43L20.17-19.43Q20.36-19.43 20.53-19.53 20.7-19.63 20.95-19.58L20.95-19.58Q21.19-20.26 21.78-20.31 22.36-20.36 22.85-20.65L22.85-20.65Q23.19-20.85 23.49-21.12 23.78-21.39 24.12-21.63L24.12-21.63 27.05-23.88 31.54-27.29Q33.79-29 36.13-30.47L36.13-30.47Q36.23-30.76 36.43-30.91 36.62-31.05 36.82-31.23 37.01-31.4 37.13-31.59 37.26-31.79 37.21-32.18L37.21-32.18Q37.89-32.32 38.26-32.71 38.62-33.11 38.92-33.57 39.21-34.03 39.53-34.5 39.84-34.96 40.38-35.21L40.38-35.21Q40.33-35.35 40.33-35.64L40.33-35.64Q40.33-36.04 40.41-36.43 40.48-36.82 40.77-37.11L40.77-37.11Q40.33-38.13 39.26-38.6 38.18-39.06 37.21-39.4L37.21-39.4 37.06-39.4Q36.82-39.4 36.79-39.18 36.77-38.96 36.52-38.87L36.52-38.87Q35.74-39.06 34.77-39.06L34.77-39.06Q33.79-39.06 32.84-38.92 31.88-38.77 30.91-38.87L30.91-38.87Q30.76-38.67 30.59-38.48 30.42-38.28 30.18-38.13L30.18-38.13Q29.15-38.09 28.13-37.84L28.13-37.84 26.07-37.35 24.95-37.11Q24.71-37.01 24.61-36.77 24.51-36.52 24.46-36.23L24.46-36.23Q24.17-36.28 24.1-36.47 24.02-36.67 23.73-36.77L23.73-36.77Q22.61-36.08 21.31-35.64 20.02-35.21 18.99-34.28L18.99-34.28Q18.65-34.67 18.02-34.67L18.02-34.67Q17.48-34.67 16.85-34.33 16.21-33.98 16.06-33.45L16.06-33.45Q15.58-33.54 15.33-33.54L15.33-33.54Q14.79-33.54 14.43-33.25 14.06-32.96 13.72-32.59 13.38-32.23 12.99-31.88 12.6-31.54 12.01-31.49L12.01-31.49Q12.01-31.25 12.04-30.98 12.06-30.71 12.06-30.42L12.06-30.42Q12.06-28.22 11.82-26.05 11.57-23.88 11.57-21.68L11.57-21.68Q11.57-21.19 11.62-20.73 11.67-20.26 11.67-19.73L11.67-19.73Q11.67-19.58 11.45-19.09 11.23-18.6 11.13-18.36L11.13-18.36Q11.33-17.82 11.3-17.29 11.28-16.75 11.52-16.26L11.52-16.26Q11.08-15.87 11.08-15.19L11.08-15.19Q11.08-14.89 11.11-14.6 11.13-14.31 11.13-14.01L11.13-14.01 11.13-13.43Q10.99-12.45 10.94-11.45 10.89-10.45 10.89-9.47L10.89-9.47Q10.89-9.03 10.91-7.98 10.94-6.93 11.04-5.64 11.13-4.35 11.33-2.98 11.52-1.61 11.84-0.46 12.16 0.68 12.65 1.42 13.13 2.15 13.82 2.15L13.82 2.15Q13.96 2.15 14.18 2.1 14.4 2.05 14.4 1.86L14.4 1.86Q14.4 1.66 14.33 1.51 14.26 1.37 14.26 1.17L14.26 1.17 14.31 1.07Q14.7 1.27 15.16 1.32 15.63 1.37 16.11 1.42 16.6 1.46 17.04 1.59 17.48 1.71 17.82 2.1L17.82 2.1Q17.63 2.49 17.63 2.93L17.63 2.93Q17.63 3.52 17.92 4.03 18.21 4.54 18.31 5.08L18.31 5.08Q17.38 5.37 16.63 5.74 15.87 6.1 15.14 6.42 14.4 6.74 13.57 7.01 12.74 7.28 11.67 7.37L11.67 7.37Q10.99 6.93 10.5 6.59 10.01 6.25 9.18 6.15L9.18 6.15Q7.91 4.44 7.08 2.32 6.25 0.2 5.79-2.1 5.32-4.39 5.15-6.71 4.98-9.03 4.98-11.08L4.98-11.08Q4.98-13.33 5.15-15.55 5.32-17.77 5.62-20.02L5.62-20.02Q5.71-20.7 5.81-21.41 5.91-22.12 6.01-22.8L6.01-22.8Q6.1-23.05 6.18-23.36 6.25-23.68 6.25-23.93L6.25-23.93Q6.25-24.76 6.2-25.59 6.15-26.42 6.15-27.2L6.15-27.2Q6.15-28.42 6.3-29.69L6.3-29.69Q6.35-29.93 6.47-30.32 6.59-30.71 6.59-31.01L6.59-31.01Q6.59-31.4 6.4-31.54 6.2-31.69 6.05-32.03L6.05-32.03Q6.2-32.52 6.3-32.98 6.4-33.45 6.4-33.94L6.4-33.94Q6.4-34.86 6.05-35.55L6.05-35.55Q6.3-36.82 6.79-38.04 7.28-39.26 8.5-39.89L8.5-39.89Q9.47-39.84 10.47-39.7 11.47-39.55 12.21-38.87L12.21-38.87Q12.55-39.06 12.99-39.11L12.99-39.11 13.92-39.21Q14.4-39.26 14.79-39.38 15.19-39.5 15.48-39.89L15.48-39.89Q16.46-40.09 17.58-40.45 18.7-40.82 19.53-41.31L19.53-41.31 20.61-41.31Q20.95-41.55 21.39-41.65L21.39-41.65 22.31-41.89Q22.8-42.04 23.22-42.19 23.63-42.33 23.88-42.68L23.88-42.68 24.07-42.68Q25.2-42.68 26.27-43.16 27.34-43.65 28.37-44.04L28.37-44.04Q28.61-44.14 29.13-44.38 29.64-44.63 29.83-44.63L29.83-44.63Q30.52-44.73 31.2-44.75 31.88-44.78 32.57-44.92L32.57-44.92Q34.13-45.17 35.67-45.48 37.21-45.8 38.77-45.8L38.77-45.8Q39.31-45.8 39.77-45.78 40.23-45.75 40.77-45.7L40.77-45.7Q40.82-45.51 41.02-45.39 41.21-45.26 41.38-45.17 41.55-45.07 41.7-44.9 41.85-44.73 41.8-44.43L41.8-44.43Q41.89-44.34 41.99-44.34L41.99-44.34Q42.14-44.34 42.26-44.48 42.38-44.63 42.63-44.63L42.63-44.63 42.87-44.63Q43.51-43.95 44.12-43.33 44.73-42.72 45.65-42.33L45.65-42.33Q46.04-40.87 46.58-39.45 47.12-38.04 47.12-36.43L47.12-36.43Q47.12-35.45 46.83-34.52L46.83-34.52Q46.14-34.18 45.85-33.45 45.56-32.71 45.31-32.03L45.31-32.03Q43.95-31.35 43.02-30.22 42.09-29.1 41.11-27.98L41.11-27.98 40.33-27.98Q40.14-27.98 40.04-27.83L40.04-27.83 39.6-27.34Q39.16-26.95 38.65-26.56 38.13-26.17 37.89-25.54L37.89-25.54Q36.38-24.71 34.99-23.68 33.59-22.66 32.32-21.53L32.32-21.53Q31.79-21.09 31.25-20.53 30.71-19.97 30.18-19.58L30.18-19.58Q29.88-19.34 29.52-19.17 29.15-18.99 28.86-18.75L28.86-18.75Q28.22-18.26 27.69-17.75 27.15-17.24 26.56-16.8L26.56-16.8Q28.76-16.89 31.01-16.92 33.25-16.94 35.45-16.99L35.45-16.99Q36.57-16.99 37.65-17.07 38.72-17.14 39.84-17.14L39.84-17.14Q40.04-17.14 40.19-17.07 40.33-16.99 40.53-16.94L40.53-16.94Q41.36-16.8 41.99-16.6L41.99-16.6Q44.34-16.16 46.68-15.82 49.02-15.48 51.27-14.7L51.27-14.7Q51.9-14.45 52.22-14.16 52.54-13.87 53.37-14.01L53.37-14.01Q54.05-13.33 54.86-12.94 55.66-12.55 56.49-12.26L56.49-12.26Q57.13-11.28 57.69-10.4 58.25-9.52 58.25-8.3Z" opacity="1" transform="matrix(1,0,0,1,0,0)" fill="#ee3e38" class="undefined-text-0" data-fill-palette-color="primary" id="text-0"></path></svg></g></svg></g></svg></g></svg></g><g></g></svg></g></svg></g></svg></g></svg></g><defs></defs></svg><rect width="320" height="360" fill="none" stroke="none" visibility="hidden"></rect></g></svg></g></svg>